<?xml version="1.0" standalone="no"?>
<!DOCTYPE svg PUBLIC "-//W3C//DTD SVG 20010904//EN"
 "http://www.w3.org/TR/2001/REC-SVG-20010904/DTD/svg10.dtd">
<svg version="1.0" xmlns="http://www.w3.org/2000/svg"
 width="200.000000pt" height="200.000000pt" viewBox="0 0 200.000000 200.000000"
 preserveAspectRatio="xMidYMid meet">
<metadata>
Created by potrace 1.13, written by Peter Selinger 2001-2015
</metadata>
<g transform="translate(0.000000,200.000000) scale(0.100000,-0.100000)"
fill="#000000" stroke="none">
<path d="M0 1000 l0 -1000 1000 0 1000 0 0 1000 0 1000 -1000 0 -1000 0 0
-1000z m1852 905 c2 -3 -4 -58 -15 -122 l-19 -118 -818 0 -818 0 -19 118 c-11
64 -17 119 -15 122 7 7 1697 7 1704 0z m-62 -402 c0 -10 -9 -69 -20 -131 -81
-470 -305 -897 -636 -1212 l-79 -75 -3 158 -3 159 51 55 c182 199 309 434 379
702 l29 111 -631 2 -631 3 -18 100 c-9 55 -17 110 -17 123 l-1 22 790 0 c746
0 790 -1 790 -17z m-1238 -449 c69 -215 191 -425 347 -596 l52 -56 -3 -157 -3
-156 -78 71 c-199 184 -395 469 -497 725 -28 70 -90 243 -90 252 0 2 55 3 123
3 l122 0 27 -86z"/>
</g>
</svg>
