#Exported from SketchUp with ZbylsXExporter

mtllib SCNLogo-Sketchup.mtl

  v   0.9779  -0.0000  -1.0490
  v   0.0272  -0.0000  -0.9207
  v   0.0079  -0.0000  -1.0490
  v   0.9572  -0.0000  -0.9207
  v   0.9389  -0.0000  -0.8249
  v   0.0647  -0.0000  -0.6901
  v   0.0438  -0.0000  -0.8286
  v   0.7847  -0.0000  -0.6901
  v   0.8470  -0.0000  -0.4540
  v   0.9147  -0.0000  -0.6769
  v   0.6112  -0.0000  -0.2905
  v   0.5230  -0.0000  -0.0150
  v   0.5230  -0.0000  -0.1950
  v   0.6111  -0.0000  -0.0964
  v   0.7065  -0.0000  -0.2122
  v   0.6820  -0.0000  -0.3995
  v   0.7243  -0.0000  -0.4901
  v   0.7776  -0.0000  -0.3211
  v   0.7540  -0.0000  -0.5535
  v   0.7693  -0.0000  -0.6218
  v   0.2229  -0.0000  -0.6129
  v   0.0964  -0.0000  -0.5723
  v   0.0829  -0.0000  -0.6129
  v   0.1477  -0.0000  -0.4360
  v   0.2001  -0.0000  -0.3280
  v   0.2882  -0.0000  -0.2066
  v   0.2375  -0.0000  -0.5444
  v   0.2586  -0.0000  -0.4882
  v   0.2924  -0.0000  -0.4157
  v   0.3470  -0.0000  -0.1257
  v   0.3329  -0.0000  -0.3467
  v   0.4135  -0.0000  -0.2447
  v   0.4598  -0.0000  -0.0122
  v   0.4598  -0.0000  -0.1922
  v   0.6111   0.2300  -0.0964
  v   0.5230   0.2300  -0.1950
  v   0.5230   0.2300  -0.0150
  v   0.6112   0.2300  -0.2905
  v   0.7065   0.2300  -0.2122
  v   0.6820   0.2300  -0.3995
  v   0.7243   0.2300  -0.4901
  v   0.7776   0.2300  -0.3211
  v   0.7540   0.2300  -0.5535
  v   0.7693   0.2300  -0.6218
  v   0.7847   0.2300  -0.6901
  v   0.8470   0.2300  -0.4540
  v   0.0647   0.2300  -0.6901
  v   0.9389   0.2300  -0.8249
  v   0.0438   0.2300  -0.8286
  v   0.9147   0.2300  -0.6769
  v   0.0964   0.2300  -0.5723
  v   0.2229   0.2300  -0.6129
  v   0.0829   0.2300  -0.6129
  v   0.1477   0.2300  -0.4360
  v   0.2001   0.2300  -0.3280
  v   0.2882   0.2300  -0.2066
  v   0.2375   0.2300  -0.5444
  v   0.2586   0.2300  -0.4882
  v   0.2924   0.2300  -0.4157
  v   0.3470   0.2300  -0.1257
  v   0.3329   0.2300  -0.3467
  v   0.4135   0.2300  -0.2447
  v   0.4598   0.2300  -0.0122
  v   0.4598   0.2300  -0.1922
  v   0.0272   0.2400  -0.9207
  v   0.9779   0.2400  -1.0490
  v   0.0079   0.2400  -1.0490
  v   0.9572   0.2400  -0.9207

  vt   0.0000   0.0000

  vn   0.0000  -1.0000  -0.0000
  vn  -0.0000   1.0000   0.0000
  vn   0.0000   1.0000  -0.0000
  vn   0.9569   0.0000   0.2906
  vn  -0.9569   0.0000  -0.2906
  vn   0.8864   0.0000   0.4629
  vn  -0.8864   0.0000  -0.4629
  vn   0.8372   0.0000   0.5469
  vn  -0.8372   0.0000  -0.5469
  vn   0.7721   0.0000   0.6356
  vn  -0.7721   0.0000  -0.6356
  vn   0.6789   0.0000   0.7342
  vn  -0.6789   0.0000  -0.7342
  vn  -1.0000   0.0000  -0.0000
  vn   1.0000   0.0000  -0.0000
  vn  -0.7347   0.0000  -0.6784
  vn   0.7347   0.0000   0.6784
  vn  -0.8390   0.0000  -0.5441
  vn   0.8390   0.0000   0.5441
  vn  -0.9058   0.0000  -0.4236
  vn   0.9058   0.0000   0.4236
  vn  -0.9757   0.0000  -0.2191
  vn   0.9757   0.0000   0.2191
  vn   0.0000   0.0000   1.0000
  vn   0.0000   0.0000  -1.0000
  vn  -0.9888   0.0000   0.1493
  vn   0.9888   0.0000  -0.1493
  vn   0.0041   0.0000  -1.0000
  vn  -0.0041   0.0000   1.0000
  vn   0.9869   0.0000   0.1616
  vn  -0.9869   0.0000  -0.1616
  vn  -0.9360   0.0000   0.3520
  vn   0.9360   0.0000  -0.3520
  vn  -0.9485   0.0000   0.3168
  vn   0.9485   0.0000  -0.3168
  vn   0.9780   0.0000  -0.2087
  vn  -0.9780   0.0000   0.2087
  vn   0.9359   0.0000  -0.3522
  vn  -0.9359   0.0000   0.3522
  vn   0.9063   0.0000  -0.4227
  vn  -0.9063   0.0000   0.4227
  vn   0.8626   0.0000  -0.5060
  vn  -0.8626   0.0000   0.5060
  vn   0.7847   0.0000  -0.6199
  vn  -0.7847   0.0000   0.6199
  vn   0.7504   0.0000  -0.6610
  vn  -0.7504   0.0000   0.6610
  vn  -0.7096   0.0000   0.7046
  vn   0.7096   0.0000  -0.7046
  vn  -0.8090   0.0000   0.5878
  vn   0.8090   0.0000  -0.5878
  vn  -0.8998   0.0000   0.4364
  vn   0.8998   0.0000  -0.4364
  vn  -0.9888   0.0000   0.1489
  vn   0.9888  -0.0000  -0.1489
  vn   0.9873  -0.0000   0.1590
  vn  -0.9873   0.0000  -0.1590

usemtl Default_Material
f   1/1/1   2/1/1   3/1/1
f   2/1/1   1/1/1   4/1/1
f   3/1/2   2/1/2   1/1/2
f   4/1/2   1/1/2   2/1/2
f   5/1/1   6/1/1   7/1/1
f   6/1/1   5/1/1   8/1/1
f   8/1/1   5/1/1   9/1/1
f   9/1/1   5/1/1   10/1/1
f   11/1/1   12/1/1   13/1/1
f   12/1/1   11/1/1   14/1/1
f   14/1/1   11/1/1   15/1/1
f   15/1/1   11/1/1   16/1/1
f   15/1/1   16/1/1   17/1/1
f   15/1/1   17/1/1   18/1/1
f   18/1/1   17/1/1   19/1/1
f   18/1/1   19/1/1   20/1/1
f   18/1/1   20/1/1   8/1/1
f   18/1/1   8/1/1   9/1/1
f   7/1/3   6/1/3   5/1/3
f   8/1/3   5/1/3   6/1/3
f   9/1/3   5/1/3   8/1/3
f   10/1/3   5/1/3   9/1/3
f   13/1/3   12/1/3   11/1/3
f   14/1/3   11/1/3   12/1/3
f   15/1/3   11/1/3   14/1/3
f   16/1/3   11/1/3   15/1/3
f   17/1/3   16/1/3   15/1/3
f   18/1/3   17/1/3   15/1/3
f   19/1/3   17/1/3   18/1/3
f   20/1/3   19/1/3   18/1/3
f   8/1/3   20/1/3   18/1/3
f   9/1/3   8/1/3   18/1/3
f   21/1/1   22/1/1   23/1/1
f   22/1/1   21/1/1   24/1/1
f   24/1/1   21/1/1   25/1/1
f   25/1/1   21/1/1   26/1/1
f   26/1/1   21/1/1   27/1/1
f   26/1/1   27/1/1   28/1/1
f   26/1/1   28/1/1   29/1/1
f   26/1/1   29/1/1   30/1/1
f   30/1/1   29/1/1   31/1/1
f   30/1/1   31/1/1   32/1/1
f   30/1/1   32/1/1   33/1/1
f   33/1/1   32/1/1   34/1/1
f   23/1/3   22/1/3   21/1/3
f   24/1/3   21/1/3   22/1/3
f   25/1/3   21/1/3   24/1/3
f   26/1/3   21/1/3   25/1/3
f   27/1/3   21/1/3   26/1/3
f   28/1/3   27/1/3   26/1/3
f   29/1/3   28/1/3   26/1/3
f   30/1/3   29/1/3   26/1/3
f   31/1/3   29/1/3   30/1/3
f   32/1/3   31/1/3   30/1/3
f   33/1/3   32/1/3   30/1/3
f   34/1/3   32/1/3   33/1/3
f   35/1/3   36/1/3   37/1/3
f   36/1/3   35/1/3   38/1/3
f   38/1/3   35/1/3   39/1/3
f   38/1/3   39/1/3   40/1/3
f   40/1/3   39/1/3   41/1/3
f   41/1/3   39/1/3   42/1/3
f   41/1/3   42/1/3   43/1/3
f   43/1/3   42/1/3   44/1/3
f   44/1/3   42/1/3   45/1/3
f   45/1/3   42/1/3   46/1/3
f   47/1/3   48/1/3   49/1/3
f   48/1/3   47/1/3   45/1/3
f   48/1/3   45/1/3   46/1/3
f   48/1/3   46/1/3   50/1/3
f   37/1/1   36/1/1   35/1/1
f   38/1/1   35/1/1   36/1/1
f   39/1/1   35/1/1   38/1/1
f   40/1/1   39/1/1   38/1/1
f   41/1/1   39/1/1   40/1/1
f   42/1/1   39/1/1   41/1/1
f   43/1/1   42/1/1   41/1/1
f   44/1/1   42/1/1   43/1/1
f   45/1/1   42/1/1   44/1/1
f   46/1/1   42/1/1   45/1/1
f   49/1/1   48/1/1   47/1/1
f   45/1/1   47/1/1   48/1/1
f   46/1/1   45/1/1   48/1/1
f   50/1/1   46/1/1   48/1/1
f   10/1/4   46/1/4   9/1/4
f   46/1/4   10/1/4   50/1/4
f   9/1/5   46/1/5   10/1/5
f   50/1/5   10/1/5   46/1/5
f   9/1/6   42/1/6   18/1/6
f   42/1/6   9/1/6   46/1/6
f   18/1/7   42/1/7   9/1/7
f   46/1/7   9/1/7   42/1/7
f   18/1/8   39/1/8   15/1/8
f   39/1/8   18/1/8   42/1/8
f   15/1/9   39/1/9   18/1/9
f   42/1/9   18/1/9   39/1/9
f   15/1/10   35/1/10   14/1/10
f   35/1/10   15/1/10   39/1/10
f   14/1/11   35/1/11   15/1/11
f   39/1/11   15/1/11   35/1/11
f   35/1/12   12/1/12   14/1/12
f   12/1/12   35/1/12   37/1/12
f   14/1/13   12/1/13   35/1/13
f   37/1/13   35/1/13   12/1/13
f   36/1/14   12/1/14   37/1/14
f   12/1/14   36/1/14   13/1/14
f   37/1/15   12/1/15   36/1/15
f   13/1/15   36/1/15   12/1/15
f   38/1/16   13/1/16   36/1/16
f   13/1/16   38/1/16   11/1/16
f   36/1/17   13/1/17   38/1/17
f   11/1/17   38/1/17   13/1/17
f   40/1/18   11/1/18   38/1/18
f   11/1/18   40/1/18   16/1/18
f   38/1/19   11/1/19   40/1/19
f   16/1/19   40/1/19   11/1/19
f   41/1/20   16/1/20   40/1/20
f   16/1/20   41/1/20   17/1/20
f   40/1/21   16/1/21   41/1/21
f   17/1/21   41/1/21   16/1/21
f   43/1/20   17/1/20   41/1/20
f   17/1/20   43/1/20   19/1/20
f   41/1/21   17/1/21   43/1/21
f   19/1/21   43/1/21   17/1/21
f   44/1/22   19/1/22   43/1/22
f   19/1/22   44/1/22   20/1/22
f   43/1/23   19/1/23   44/1/23
f   20/1/23   44/1/23   19/1/23
f   45/1/22   20/1/22   44/1/22
f   20/1/22   45/1/22   8/1/22
f   44/1/23   20/1/23   45/1/23
f   8/1/23   45/1/23   20/1/23
f   45/1/24   6/1/24   8/1/24
f   6/1/24   45/1/24   47/1/24
f   8/1/25   6/1/25   45/1/25
f   47/1/25   45/1/25   6/1/25
f   49/1/26   6/1/26   47/1/26
f   6/1/26   49/1/26   7/1/26
f   47/1/27   6/1/27   49/1/27
f   7/1/27   49/1/27   6/1/27
f   49/1/28   5/1/28   7/1/28
f   5/1/28   49/1/28   48/1/28
f   7/1/29   5/1/29   49/1/29
f   48/1/29   49/1/29   5/1/29
f   5/1/30   50/1/30   10/1/30
f   50/1/30   5/1/30   48/1/30
f   10/1/31   50/1/31   5/1/31
f   48/1/31   5/1/31   50/1/31
f   51/1/3   52/1/3   53/1/3
f   52/1/3   51/1/3   54/1/3
f   52/1/3   54/1/3   55/1/3
f   52/1/3   55/1/3   56/1/3
f   52/1/3   56/1/3   57/1/3
f   57/1/3   56/1/3   58/1/3
f   58/1/3   56/1/3   59/1/3
f   59/1/3   56/1/3   60/1/3
f   59/1/3   60/1/3   61/1/3
f   61/1/3   60/1/3   62/1/3
f   62/1/3   60/1/3   63/1/3
f   62/1/3   63/1/3   64/1/3
f   53/1/1   52/1/1   51/1/1
f   54/1/1   51/1/1   52/1/1
f   55/1/1   54/1/1   52/1/1
f   56/1/1   55/1/1   52/1/1
f   57/1/1   56/1/1   52/1/1
f   58/1/1   56/1/1   57/1/1
f   59/1/1   56/1/1   58/1/1
f   60/1/1   56/1/1   59/1/1
f   61/1/1   60/1/1   59/1/1
f   62/1/1   60/1/1   61/1/1
f   63/1/1   60/1/1   62/1/1
f   64/1/1   63/1/1   62/1/1
f   51/1/32   24/1/32   54/1/32
f   24/1/32   51/1/32   22/1/32
f   54/1/33   24/1/33   51/1/33
f   22/1/33   51/1/33   24/1/33
f   53/1/34   22/1/34   51/1/34
f   22/1/34   53/1/34   23/1/34
f   51/1/35   22/1/35   53/1/35
f   23/1/35   53/1/35   22/1/35
f   53/1/25   21/1/25   23/1/25
f   21/1/25   53/1/25   52/1/25
f   23/1/24   21/1/24   53/1/24
f   52/1/24   53/1/24   21/1/24
f   21/1/36   57/1/36   27/1/36
f   57/1/36   21/1/36   52/1/36
f   27/1/37   57/1/37   21/1/37
f   52/1/37   21/1/37   57/1/37
f   27/1/38   58/1/38   28/1/38
f   58/1/38   27/1/38   57/1/38
f   28/1/39   58/1/39   27/1/39
f   57/1/39   27/1/39   58/1/39
f   28/1/40   59/1/40   29/1/40
f   59/1/40   28/1/40   58/1/40
f   29/1/41   59/1/41   28/1/41
f   58/1/41   28/1/41   59/1/41
f   29/1/42   61/1/42   31/1/42
f   61/1/42   29/1/42   59/1/42
f   31/1/43   61/1/43   29/1/43
f   59/1/43   29/1/43   61/1/43
f   31/1/44   62/1/44   32/1/44
f   62/1/44   31/1/44   61/1/44
f   32/1/45   62/1/45   31/1/45
f   61/1/45   31/1/45   62/1/45
f   32/1/46   64/1/46   34/1/46
f   64/1/46   32/1/46   62/1/46
f   34/1/47   64/1/47   32/1/47
f   62/1/47   32/1/47   64/1/47
f   34/1/15   63/1/15   33/1/15
f   63/1/15   34/1/15   64/1/15
f   33/1/14   63/1/14   34/1/14
f   64/1/14   34/1/14   63/1/14
f   60/1/48   33/1/48   63/1/48
f   33/1/48   60/1/48   30/1/48
f   63/1/49   33/1/49   60/1/49
f   30/1/49   60/1/49   33/1/49
f   56/1/50   30/1/50   60/1/50
f   30/1/50   56/1/50   26/1/50
f   60/1/51   30/1/51   56/1/51
f   26/1/51   56/1/51   30/1/51
f   55/1/50   26/1/50   56/1/50
f   26/1/50   55/1/50   25/1/50
f   56/1/51   26/1/51   55/1/51
f   25/1/51   55/1/51   26/1/51
f   54/1/52   25/1/52   55/1/52
f   25/1/52   54/1/52   24/1/52
f   55/1/53   25/1/53   54/1/53
f   24/1/53   54/1/53   25/1/53
f   65/1/2   66/1/2   67/1/2
f   66/1/2   65/1/2   68/1/2
f   67/1/1   66/1/1   65/1/1
f   68/1/1   65/1/1   66/1/1
f   67/1/54   2/1/54   65/1/54
f   2/1/54   67/1/54   3/1/54
f   65/1/55   2/1/55   67/1/55
f   3/1/55   67/1/55   2/1/55
f   67/1/25   1/1/25   3/1/25
f   1/1/25   67/1/25   66/1/25
f   3/1/24   1/1/24   67/1/24
f   66/1/24   67/1/24   1/1/24
f   1/1/56   68/1/56   4/1/56
f   68/1/56   1/1/56   66/1/56
f   4/1/57   68/1/57   1/1/57
f   66/1/57   1/1/57   68/1/57
f   68/1/24   2/1/24   4/1/24
f   2/1/24   68/1/24   65/1/24
f   4/1/25   2/1/25   68/1/25
f   65/1/25   68/1/25   2/1/25
